<svg width="21" height="20" viewBox="0 0 21 20" fill="none" xmlns="http://www.w3.org/2000/svg">
    <g clip-path="url(#hocy11yw6a)">
        <path d="M3 3.333v-2.5h1.667v2.5h2.5V5h-2.5v2.5H3V5H.5V3.333H3zm2.5 5v-2.5H8v-2.5h5.833L15.358 5H18c.917 0 1.667.75 1.667 1.666v10c0 .917-.75 1.667-1.667 1.667H4.667c-.917 0-1.667-.75-1.667-1.667V8.333h2.5zm5.833 7.5c2.3 0 4.167-1.867 4.167-4.167S13.633 7.5 11.333 7.5a4.168 4.168 0 0 0-4.166 4.166c0 2.3 1.866 4.167 4.166 4.167zm-2.666-4.167a2.664 2.664 0 0 0 2.666 2.667A2.664 2.664 0 0 0 14 11.666 2.664 2.664 0 0 0 11.333 9a2.664 2.664 0 0 0-2.666 2.666z" fill="#fff"/>
    </g>
    <defs>
        <clipPath id="hocy11yw6a">
            <path fill="#fff" transform="translate(.5)" d="M0 0h20v20H0z"/>
        </clipPath>
    </defs>
</svg>
