<?xml version="1.0" encoding="UTF-8"?>
<svg width="18px" height="12px" viewBox="0 0 18 12" version="1.1" xmlns="http://www.w3.org/2000/svg" xmlns:xlink="http://www.w3.org/1999/xlink">
    <title>menu ic</title>
    <g id="Symbols" stroke="none" stroke-width="1" fill="none" fill-rule="evenodd">
        <g id="Header-/-Mobile" transform="translate(-12.000000, -25.000000)" fill="#2A4EAD" fill-rule="nonzero">
            <g id="Group-4" transform="translate(0.000000, 14.000000)">
                <g id="menu-ic" transform="translate(12.000000, 11.000000)">
                    <path d="M17,9.99998438 C17.5522847,9.99998437 18,10.4476996 18,10.9999844 L18,11 C18,11.5522847 17.5522847,12 17,12 L1,12 C0.44771525,12 6.76353751e-17,11.5522847 0,11 L0,10.9999844 C-6.76353751e-17,10.4476996 0.44771525,9.99998438 1,9.99998438 L17,9.99998438 Z M17,5.00001562 C17.5128358,5.00001562 17.9355072,5.38605582 17.9932723,5.8833945 L18,6.00003125 C18,6.552316 17.5522847,7.00003125 17,7.00003125 L1,7.00003125 C0.487164161,7.00003125 0.0644928393,6.61399106 0.00672773133,6.11665238 L0,6.00001562 C-6.76353751e-17,5.44773088 0.44771525,5.00001562 1,5.00001562 L17,5.00001562 Z M17,0 C17.5128358,-1.91616532e-15 17.9355072,0.38604019 17.9932723,0.883378875 L18,1.00001563 C18,1.55230037 17.5522847,2.00001563 17,2.00001563 L1,2.00001563 C0.487164161,2.00001563 0.0644928393,1.61397543 0.00672773133,1.11663675 L0,1 C-6.76353751e-17,0.44771525 0.44771525,1.01453063e-16 1,0 L17,0 Z" id="Combined-Shape"></path>
                </g>
            </g>
        </g>
    </g>
</svg>