<svg width="72" height="72" viewBox="0 0 72 72" fill="none" xmlns="http://www.w3.org/2000/svg">
    <g clip-path="url(#kndoz4el0a)">
        <path opacity=".201" d="M32.25 64.495c-7.03 0-12.75-5.72-12.75-12.75V9.058L5.005 12.374c-3.582.942-5.73 4.635-4.782 8.25l12.426 46.39c.825 3 3.582 4.986 6.54 4.986.555 0 1.12-.069 1.677-.216l30.24-7.289H32.25z" fill="#2A4EAD"/>
        <path d="M72 8.25v43.496c0 4.56-3.69 8.25-8.25 8.25h-31.5c-3.09 0-5.79-1.71-7.2-4.23a8.18 8.18 0 0 1-1.051-4.02V8.249c0-4.56 3.69-8.249 8.25-8.249h31.5C68.31 0 72 3.69 72 8.25z" fill="#ECEFF1"/>
        <path opacity=".39" d="M45 20.998a6 6 0 1 1-12 0 6 6 0 0 1 12 0z" fill="#F3AB29"/>
        <path d="M72 35.817v15.928c0 4.56-3.69 8.25-8.25 8.25h-31.5c-3.09 0-5.79-1.71-7.2-4.23l29.73-29.728c2.04-2.039 5.4-2.039 7.44 0l9.78 9.78z" fill="#426DDD"/>
        <path d="M63.18 59.995H32.25c-3.09 0-5.79-1.71-7.2-4.23a8.18 8.18 0 0 1-1.051-4.02v-6.929l8.28-8.28c2.04-2.04 5.4-2.04 7.44 0l23.46 23.46z" fill="#628AF2"/>
    </g>
    <defs>
        <clipPath id="kndoz4el0a">
            <path fill="#fff" d="M0 0h72v72H0z"/>
        </clipPath>
    </defs>
</svg>
