<svg width="40" height="40" viewBox="0 0 40 40" fill="none" xmlns="http://www.w3.org/2000/svg">
    <rect width="40" height="40" rx="20" fill="#E0E9FF"/>
    <path fill-rule="evenodd" clip-rule="evenodd" d="M25.998 16a6 6 0 1 1-12 0 6 6 0 0 1 12 0zm-2 0a4 4 0 1 1-8 0 4 4 0 0 1 8 0z" fill="#003FE5"/>
    <path d="M19.998 25c-6.474 0-11.99 3.828-14.092 9.192.512.508 1.051.99 1.616 1.44C9.086 30.708 13.995 27 19.998 27c6.004 0 10.912 3.708 12.477 8.632.564-.45 1.103-.932 1.615-1.44C31.99 28.828 26.473 25 19.998 25z" fill="#003FE5"/>
</svg>
